<svg width="128" height="128" viewBox="0 0 128 128" fill="none" xmlns="http://www.w3.org/2000/svg">
  <defs>
    <linearGradient id="bg" x1="12" y1="12" x2="116" y2="116" gradientUnits="userSpaceOnUse">
      <stop stop-color="#26B5A2" />
      <stop offset="1" stop-color="#0E7A8E" />
    </linearGradient>
    <radialGradient id="ball" cx="0" cy="0" r="1" gradientUnits="userSpaceOnUse" gradientTransform="translate(50 40) rotate(45) scale(80)">
      <stop stop-color="#FFFFFF" />
      <stop offset="1" stop-color="#DDF4FF" />
    </radialGradient>
  </defs>

  <rect x="8" y="8" width="112" height="112" rx="24" fill="url(#bg)" />
  <circle cx="64" cy="60" r="34" fill="url(#ball)" />

  <path d="M31 60C39 53 50 49 64 49C78 49 89 53 97 60" stroke="#0A6E88" stroke-width="4.2" stroke-linecap="round" />
  <path d="M31 60C39 67 50 71 64 71C78 71 89 67 97 60" stroke="#0A6E88" stroke-width="4.2" stroke-linecap="round" />
  <path d="M64 26C56 34 52 46 52 60C52 74 56 86 64 94" stroke="#0A6E88" stroke-width="4.2" stroke-linecap="round" />
  <path d="M64 26C72 34 76 46 76 60C76 74 72 86 64 94" stroke="#0A6E88" stroke-width="4.2" stroke-linecap="round" />

  <text x="64" y="113" text-anchor="middle" fill="#E6FAFF" font-family="Arial, sans-serif" font-size="15" font-weight="700">NVA</text>
</svg>